# xmcd
#
# Track frame offsets:
# 150
# 14643
# 28694
# 46043
#
# Disc length: 826 seconds
#
# Revision: 1
# Processed by: cddbd v1.5.2PL0 Copyright (c) Steve Scherf et al.
# Submitted via: CedeCatalogueitor 2.6.0.6 http://personales.ya.com/cdcatalogueitor
#
DISCID=28033804
DTITLE=Zenttric - Limousine EP
DYEAR=1900
DGENRE=
TTITLE0=Martes
TTITLE1=Limousine
TTITLE2=Olvidate De Mi
TTITLE3=Contrario
EXTD=
EXTT0=
EXTT1=
EXTT2=
EXTT3=
PLAYORDER=
